<?xml version="1.0"?>
<svg xmlns="http://www.w3.org/2000/svg" xmlns:xlink="http://www.w3.org/1999/xlink" viewBox="0 0 64 64" width="512" height="512"><defs><linearGradient id="New_Gradient_Swatch_copy" x1="33.137" y1="62.88" x2="30.815" y2="-0.202" gradientUnits="userSpaceOnUse"><stop offset="0" stop-color="#e93e3a"/><stop offset="0.36" stop-color="#ed683c"/><stop offset="0.716" stop-color="#f3903f"/><stop offset="1" stop-color="#fdc70c"/></linearGradient><linearGradient id="New_Gradient_Swatch_copy-2" x1="33.615" y1="62.862" x2="31.293" y2="-0.219" xlink:href="#New_Gradient_Swatch_copy"/><linearGradient id="New_Gradient_Swatch_copy-3" x1="24.295" y1="63.205" x2="21.973" y2="0.124" gradientTransform="translate(22.808 -9.447) rotate(45)" xlink:href="#New_Gradient_Swatch_copy"/><linearGradient id="New_Gradient_Swatch_copy-4" x1="20.154" y1="63.358" x2="17.832" y2="0.276" xlink:href="#New_Gradient_Swatch_copy"/><linearGradient id="New_Gradient_Swatch_copy-5" x1="23.619" y1="63.23" x2="21.297" y2="0.149" gradientTransform="translate(35.808 -4.062) rotate(45)" xlink:href="#New_Gradient_Swatch_copy"/><linearGradient id="New_Gradient_Swatch_copy-6" x1="32.659" y1="62.897" x2="30.337" y2="-0.184" xlink:href="#New_Gradient_Swatch_copy"/><linearGradient id="New_Gradient_Swatch_copy-7" x1="41.979" y1="62.554" x2="39.657" y2="-0.527" gradientTransform="translate(41.192 -17.062) rotate(45)" xlink:href="#New_Gradient_Swatch_copy"/><linearGradient id="New_Gradient_Swatch_copy-8" x1="46.119" y1="62.402" x2="43.797" y2="-0.68" xlink:href="#New_Gradient_Swatch_copy"/><linearGradient id="New_Gradient_Swatch_copy-9" x1="42.655" y1="62.529" x2="40.333" y2="-0.552" gradientTransform="translate(28.192 -22.447) rotate(45)" xlink:href="#New_Gradient_Swatch_copy"/><linearGradient id="New_Gradient_Swatch_copy-11" x1="33.909" y1="62.851" x2="31.587" y2="-0.23" xlink:href="#New_Gradient_Swatch_copy"/><linearGradient id="New_Gradient_Swatch_copy-12" x1="18.853" y1="63.405" x2="16.531" y2="0.324" gradientTransform="translate(17.151 -7.104) rotate(45)" xlink:href="#New_Gradient_Swatch_copy"/><linearGradient id="New_Gradient_Swatch_copy-13" x1="12.165" y1="63.652" x2="9.843" y2="0.57" xlink:href="#New_Gradient_Swatch_copy"/><linearGradient id="New_Gradient_Swatch_copy-14" x1="17.762" y1="63.446" x2="15.44" y2="0.364" gradientTransform="translate(38.151 1.594) rotate(45)" xlink:href="#New_Gradient_Swatch_copy"/><linearGradient id="New_Gradient_Swatch_copy-15" x1="32.365" y1="62.908" x2="30.043" y2="-0.173" xlink:href="#New_Gradient_Swatch_copy"/><linearGradient id="New_Gradient_Swatch_copy-16" x1="47.42" y1="62.354" x2="45.098" y2="-0.727" gradientTransform="translate(46.849 -19.406) rotate(45)" xlink:href="#New_Gradient_Swatch_copy"/><linearGradient id="New_Gradient_Swatch_copy-17" x1="54.108" y1="62.108" x2="51.786" y2="-0.974" xlink:href="#New_Gradient_Swatch_copy"/><linearGradient id="New_Gradient_Swatch_copy-18" x1="48.512" y1="62.314" x2="46.19" y2="-0.768" gradientTransform="translate(25.849 -28.104) rotate(45)" xlink:href="#New_Gradient_Swatch_copy"/><linearGradient id="New_Gradient_Swatch_copy-19" x1="47.124" y1="62.365" x2="44.802" y2="-0.716" xlink:href="#New_Gradient_Swatch_copy"/><linearGradient id="New_Gradient_Swatch_copy-20" x1="19.149" y1="63.394" x2="16.827" y2="0.313" xlink:href="#New_Gradient_Swatch_copy"/></defs><g id="Gear-2" data-name="Gear"><path d="M41.3,46.942a1,1,0,0,0,1.307-.093l4.243-4.243a1,1,0,0,0,.093-1.307l-2.364-3.152a14,14,0,0,0,.657-1.6l3.907-.558A1,1,0,0,0,50,35V29a1,1,0,0,0-.858-.99l-3.907-.558a14,14,0,0,0-.657-1.6L46.942,22.7a1,1,0,0,0-.093-1.307l-4.243-4.243a1,1,0,0,0-1.307-.093l-3.152,2.364a14,14,0,0,0-1.6-.657l-.558-3.907A1,1,0,0,0,35,14H29a1,1,0,0,0-.99.858l-.558,3.907a14,14,0,0,0-1.6.657L22.7,17.058a1,1,0,0,0-1.307.093l-4.243,4.243a1,1,0,0,0-.093,1.307l2.364,3.152a14,14,0,0,0-.657,1.6l-3.907.558A1,1,0,0,0,14,29v6a1,1,0,0,0,.858.99l3.907.558a14,14,0,0,0,.657,1.6L17.058,41.3a1,1,0,0,0,.093,1.307l4.243,4.243a1,1,0,0,0,1.307.093l3.152-2.364a14,14,0,0,0,1.6.657l.558,3.907A1,1,0,0,0,29,50h6a1,1,0,0,0,.99-.858l.558-3.907a14,14,0,0,0,1.6-.657Zm-5.932-3.43a1,1,0,0,0-.71.818L34.133,48H29.867l-.524-3.67a1,1,0,0,0-.71-.818,11.939,11.939,0,0,1-2.4-.987,1,1,0,0,0-1.081.077l-2.961,2.22-3.016-3.016,2.22-2.961a1,1,0,0,0,.077-1.081,11.939,11.939,0,0,1-.987-2.4,1,1,0,0,0-.818-.71L16,34.133V29.867l3.67-.524a1,1,0,0,0,.818-.71,11.939,11.939,0,0,1,.987-2.4,1,1,0,0,0-.077-1.081l-2.22-2.961,3.016-3.016,2.961,2.22a1,1,0,0,0,1.081.077,11.939,11.939,0,0,1,2.4-.987,1,1,0,0,0,.71-.818L29.867,16h4.266l.524,3.67a1,1,0,0,0,.71.818,11.939,11.939,0,0,1,2.4.987,1,1,0,0,0,1.081-.077l2.961-2.22,3.016,3.016L42.6,25.155a1,1,0,0,0-.077,1.081,11.939,11.939,0,0,1,.987,2.4,1,1,0,0,0,.818.71l3.67.524v4.266l-3.67.524a1,1,0,0,0-.818.71,11.939,11.939,0,0,1-.987,2.4,1,1,0,0,0,.077,1.081l2.22,2.961-3.016,3.016L38.845,42.6a1,1,0,0,0-1.081-.077A11.939,11.939,0,0,1,35.367,43.512Z" style="fill:url(#New_Gradient_Swatch_copy)"/><rect x="31" y="18" width="2" height="2" style="fill:url(#New_Gradient_Swatch_copy-2)"/><rect x="21.808" y="21.808" width="2" height="2" transform="translate(-9.447 22.808) rotate(-45)" style="fill:url(#New_Gradient_Swatch_copy-3)"/><rect x="18" y="31" width="2" height="2" style="fill:url(#New_Gradient_Swatch_copy-4)"/><rect x="21.808" y="40.192" width="2" height="2" transform="translate(-22.447 28.192) rotate(-45)" style="fill:url(#New_Gradient_Swatch_copy-5)"/><rect x="31" y="44" width="2" height="2" style="fill:url(#New_Gradient_Swatch_copy-6)"/><rect x="40.192" y="40.192" width="2" height="2" transform="translate(-17.062 41.192) rotate(-45)" style="fill:url(#New_Gradient_Swatch_copy-7)"/><rect x="44" y="31" width="2" height="2" style="fill:url(#New_Gradient_Swatch_copy-8)"/><rect x="40.192" y="21.808" width="2" height="2" transform="translate(-4.062 35.808) rotate(-45)" style="fill:url(#New_Gradient_Swatch_copy-9)"/><path d="M32,24a8,8,0,1,0,8,8A8.009,8.009,0,0,0,32,24Zm0,14a6,6,0,1,1,6-6A6.006,6.006,0,0,1,32,38Z" style="fill:url(#New_Gradient_Swatch_copy)"/><rect x="31" y="10" width="2" height="2" style="fill:url(#New_Gradient_Swatch_copy-11)"/><rect x="16.151" y="16.151" width="2" height="2" transform="translate(-7.104 17.151) rotate(-45)" style="fill:url(#New_Gradient_Swatch_copy-12)"/><rect x="10" y="31" width="2" height="2" style="fill:url(#New_Gradient_Swatch_copy-13)"/><rect x="16.151" y="45.849" width="2" height="2" transform="translate(-28.104 25.849) rotate(-45)" style="fill:url(#New_Gradient_Swatch_copy-14)"/><rect x="31" y="52" width="2" height="2" style="fill:url(#New_Gradient_Swatch_copy-15)"/><rect x="45.849" y="45.849" width="2" height="2" transform="translate(-19.406 46.849) rotate(-45)" style="fill:url(#New_Gradient_Swatch_copy-16)"/><rect x="52" y="31" width="2" height="2" style="fill:url(#New_Gradient_Swatch_copy-17)"/><rect x="45.849" y="16.151" width="2" height="2" transform="translate(1.594 38.151) rotate(-45)" style="fill:url(#New_Gradient_Swatch_copy-18)"/><path d="M34.311,4.1l1.4-1.4L34.293,1.293l-3,3a1,1,0,0,0,0,1.414l3,3,1.414-1.414L34.54,6.126a26,26,0,0,1,2.225,51.438l.364,1.967A28,28,0,0,0,34.311,4.1Z" style="fill:url(#New_Gradient_Swatch_copy-19)"/><path d="M29.707,55.293l-1.414,1.414,1.167,1.167A26,26,0,0,1,28.154,6.282L27.861,4.3A28,28,0,0,0,29.689,59.9l-1.4,1.4,1.414,1.414,3-3a1,1,0,0,0,0-1.414Z" style="fill:url(#New_Gradient_Swatch_copy-20)"/></g></svg>
