<?xml version="1.0"?>
<svg xmlns="http://www.w3.org/2000/svg" viewBox="0 0 64 64" width="512" height="512"><g id="Gear-2" data-name="Gear"><rect x="52" y="31" width="2" height="2" style="fill:#ff5023"/><path d="M44.47,35.65a12.589,12.589,0,0,1-1.07,2.6l2.74,3.65L41.9,46.14,38.25,43.4a12.589,12.589,0,0,1-2.6,1.07L35,49H29l-.65-4.53a12.589,12.589,0,0,1-2.6-1.07L22.1,46.14,17.86,41.9l2.74-3.65a12.589,12.589,0,0,1-1.07-2.6L15,35V29l4.53-.65a12.589,12.589,0,0,1,1.07-2.6L17.86,22.1l4.24-4.24,3.65,2.74a12.589,12.589,0,0,1,2.6-1.07L29,15h6l.65,4.53a12.589,12.589,0,0,1,2.6,1.07l3.65-2.74,4.24,4.24L43.4,25.75a12.589,12.589,0,0,1,1.07,2.6L49,29v6Z" style="fill:#ffa733"/><circle cx="32" cy="32" r="7" style="fill:#ff6243"/><rect x="31" y="18" width="2" height="2" style="fill:#ee8700"/><rect x="21.808" y="21.808" width="2" height="2" transform="translate(-9.447 22.808) rotate(-45)" style="fill:#ee8700"/><rect x="18" y="31" width="2" height="2" style="fill:#ee8700"/><rect x="21.808" y="40.192" width="2" height="2" transform="translate(-22.447 28.192) rotate(-45)" style="fill:#ee8700"/><rect x="31" y="44" width="2" height="2" style="fill:#ee8700"/><rect x="40.192" y="40.192" width="2" height="2" transform="translate(-17.062 41.192) rotate(-45)" style="fill:#ee8700"/><rect x="44" y="31" width="2" height="2" style="fill:#ee8700"/><rect x="40.192" y="21.808" width="2" height="2" transform="translate(-4.062 35.808) rotate(-45)" style="fill:#ee8700"/><rect x="31" y="10" width="2" height="2" style="fill:#ff5023"/><rect x="16.151" y="16.151" width="2" height="2" transform="translate(-7.104 17.151) rotate(-45)" style="fill:#ff5023"/><rect x="10" y="31" width="2" height="2" style="fill:#ff5023"/><rect x="16.151" y="45.849" width="2" height="2" transform="translate(-28.104 25.849) rotate(-45)" style="fill:#ff5023"/><rect x="31" y="52" width="2" height="2" style="fill:#ff5023"/><rect x="45.849" y="45.849" width="2" height="2" transform="translate(-19.406 46.849) rotate(-45)" style="fill:#ff5023"/><rect x="45.849" y="16.151" width="2" height="2" transform="translate(1.594 38.151) rotate(-45)" style="fill:#ff5023"/><path d="M34.311,4.1l1.4-1.4L34.293,1.293l-3,3a1,1,0,0,0,0,1.414l3,3,1.414-1.414L34.54,6.126a26,26,0,0,1,2.225,51.438l.364,1.967A28,28,0,0,0,34.311,4.1Z" style="fill:#ff5023"/><path d="M32.707,58.293l-3-3-1.414,1.414,1.167,1.167A26,26,0,0,1,28.154,6.282L27.861,4.3A28,28,0,0,0,29.689,59.9l-1.4,1.4,1.414,1.414,3-3A1,1,0,0,0,32.707,58.293Z" style="fill:#ff9811"/></g></svg>
